<svg xmlns="http://www.w3.org/2000/svg" viewBox="0 0 128 64">
  <rect width="128" height="64" fill="#d8c6ff"/>
  <path d="M0 48 C20 36 40 44 64 46 C88 48 108 40 128 46 L128 64 H0 Z" fill="#bfa7f4"/>
  <g fill="#f7e4ff" stroke="#9b74d6" stroke-width="1.5">
    <polygon points="20,34 23,41 30,42 25,47 26,54 20,50 14,54 15,47 10,42 17,41"/>
    <polygon points="60,30 63,37 70,38 65,43 66,50 60,46 54,50 55,43 50,38 57,37"/>
    <polygon points="100,36 103,43 110,44 105,49 106,56 100,52 94,56 95,49 90,44 97,43"/>
  </g>
</svg>
